<?xml version="1.0" standalone="no"?>
<!DOCTYPE svg PUBLIC "-//W3C//DTD SVG 20010904//EN"
 "http://www.w3.org/TR/2001/REC-SVG-20010904/DTD/svg10.dtd">
<svg version="1.0" xmlns="http://www.w3.org/2000/svg"
 width="275.000000pt" height="183.000000pt" viewBox="0 0 275.000000 183.000000"
 preserveAspectRatio="xMidYMid meet">

<g transform="translate(0.000000,183.000000) scale(0.100000,-0.100000)"
fill="#000000" stroke="none">
<path d="M942 1501 c-60 -21 -114 -67 -145 -126 -21 -39 -22 -51 -23 -410 -1
-203 1 -354 3 -335 4 27 13 40 39 58 20 12 42 22 50 22 8 0 14 7 14 16 0 8 4
13 9 10 5 -4 12 0 14 6 3 7 7 2 8 -12 2 -14 5 79 9 205 5 212 7 234 28 280 30
65 63 98 126 127 49 22 61 23 301 23 250 0 250 0 307 -27 61 -28 106 -80 130
-146 9 -27 13 -106 13 -282 0 -234 -1 -247 -23 -295 -13 -27 -33 -61 -45 -74
-28 -30 -110 -69 -165 -77 -44 -7 -68 -24 -32 -24 17 0 19 -3 10 -19 -8 -16
-6 -21 10 -26 16 -5 20 -15 20 -46 l0 -39 74 0 c131 0 218 44 274 138 l27 47
0 420 c0 390 -1 422 -19 455 -26 49 -74 98 -121 123 -39 21 -51 22 -440 24
-368 3 -404 1 -453 -16z"/>
<path d="M1124 1269 c-46 -13 -90 -59 -103 -105 -6 -23 -10 -120 -10 -234 1
-112 5 -182 9 -165 7 28 8 28 9 5 1 -15 4 -20 9 -14 11 18 122 25 129 8 3 -8
11 -14 19 -14 8 0 14 -5 14 -12 0 -6 3 -8 7 -4 5 4 1 13 -7 19 -9 7 -26 36
-39 66 -47 111 -9 233 93 296 43 26 59 30 120 30 59 0 79 -5 117 -27 119 -70
152 -221 76 -336 -39 -57 -95 -90 -174 -100 l-58 -8 55 -9 c44 -7 50 -10 30
-15 -24 -6 -24 -7 13 -25 44 -21 55 -39 37 -60 -11 -13 -5 -15 41 -15 124 1
196 41 219 124 8 28 10 116 8 266 -3 216 -4 227 -26 263 -43 68 -58 72 -322
74 -129 1 -249 -2 -266 -8z m530 -75 c51 -50 -23 -125 -76 -77 -36 33 -13 93
37 93 13 0 31 -7 39 -16z"/>
<path d="M1302 1040 c-64 -39 -91 -125 -58 -188 55 -104 195 -109 256 -10 56
93 -15 218 -125 218 -22 0 -54 -9 -73 -20z"/>
<path d="M1220 726 c0 -3 9 -10 20 -16 11 -6 20 -8 20 -6 0 3 -9 10 -20 16
-11 6 -20 8 -20 6z"/>
</g>
</svg>
