<?xml version="1.0" standalone="no"?>
<!DOCTYPE svg PUBLIC "-//W3C//DTD SVG 20010904//EN"
 "http://www.w3.org/TR/2001/REC-SVG-20010904/DTD/svg10.dtd">
<svg version="1.0" xmlns="http://www.w3.org/2000/svg"
 width="440.000000pt" height="440.000000pt" viewBox="0 0 440.000000 440.000000"
 preserveAspectRatio="xMidYMid meet">

<g transform="translate(0.000000,440.000000) scale(0.100000,-0.100000)"
fill="#000000" stroke="none">
<path d="M2388 4003 c7 -3 16 -2 19 1 4 3 -2 6 -13 5 -11 0 -14 -3 -6 -6z"/>
<path d="M2081 3986 c-8 -9 -23 -16 -35 -16 -16 0 -18 -2 -7 -9 9 -6 -11 -13
-60 -21 -83 -14 -193 -52 -167 -58 9 -2 28 4 41 13 24 15 107 28 107 16 0 -8
-127 -41 -157 -41 -12 0 -28 -6 -35 -13 -7 -8 -19 -12 -27 -9 -8 3 -11 0 -7
-7 4 -6 2 -9 -7 -5 -8 3 -17 -2 -21 -11 -3 -10 -12 -15 -21 -11 -8 3 -15 1
-15 -5 0 -6 -5 -7 -10 -4 -6 3 -22 -2 -38 -12 -15 -10 -38 -24 -52 -30 -71
-31 -123 -60 -142 -80 -12 -13 -17 -23 -11 -23 5 0 20 11 32 24 22 24 61 32
61 13 0 -5 -6 -7 -13 -4 -12 5 -49 -25 -85 -68 -10 -12 -17 -13 -27 -5 -9 7
-15 6 -24 -3 -6 -8 -9 -16 -6 -19 3 -3 -1 -18 -10 -34 -8 -16 -15 -33 -15 -39
0 -5 -18 -34 -40 -63 -22 -29 -40 -59 -40 -68 0 -8 -4 -13 -8 -10 -5 3 -9 -7
-9 -22 0 -15 -24 -69 -52 -120 -57 -102 -84 -169 -77 -189 3 -7 1 -13 -4 -13
-5 0 -7 -7 -4 -15 4 -8 10 -15 16 -15 5 0 7 3 4 8 -2 4 2 18 10 32 20 37 17 8
-6 -52 -14 -37 -17 -55 -9 -63 7 -7 10 -4 7 9 -1 10 3 21 11 24 8 3 11 0 7 -6
-3 -6 -2 -12 3 -14 5 -1 6 -18 3 -37 -3 -24 -7 -29 -14 -20 -7 10 -8 8 -4 -6
3 -11 7 -36 10 -55 2 -19 11 -51 20 -70 9 -19 14 -27 12 -18 -3 10 -1 20 3 23
5 2 15 -15 22 -39 7 -25 17 -42 21 -40 4 3 8 0 8 -5 0 -6 -6 -11 -12 -11 -10
0 -9 -3 1 -9 7 -5 17 -28 22 -52 16 -78 20 -92 28 -108 9 -16 20 -70 27 -131
5 -36 10 -47 20 -38 3 3 7 68 9 144 3 146 13 246 24 240 3 -2 7 6 8 17 4 45
16 87 24 87 5 0 9 13 9 29 0 17 5 33 10 36 6 3 10 14 10 24 0 22 34 63 44 53
4 -4 5 5 1 21 -7 27 8 39 18 15 3 -7 6 -1 6 15 1 17 7 27 16 27 8 0 24 20 35
44 20 44 40 67 40 47 0 -6 7 -11 17 -11 9 0 14 3 10 6 -3 3 4 15 15 26 12 12
18 28 15 40 -3 11 -3 17 0 14 12 -11 31 15 26 34 -6 22 12 28 20 8 4 -10 6
-10 6 0 1 18 27 43 87 85 117 81 129 84 306 76 56 -2 70 0 85 17 10 10 29 19
43 18 14 0 33 3 42 8 10 5 19 4 23 -2 3 -5 19 -10 35 -10 15 0 30 -5 32 -11 3
-9 42 -15 146 -22 12 -1 22 -8 22 -15 0 -7 5 -10 10 -7 6 3 13 -1 16 -9 3 -9
17 -16 30 -16 21 0 24 -5 25 -42 2 -30 3 -35 6 -15 4 25 33 40 33 17 0 -5 6
-10 14 -10 8 0 16 -4 18 -9 2 -6 19 -13 38 -16 22 -4 47 -19 67 -40 18 -19 38
-35 45 -35 23 0 37 -36 32 -80 -4 -34 -2 -41 9 -37 11 4 17 -5 22 -31 11 -64
36 -142 49 -154 7 -7 31 -52 54 -101 39 -81 43 -97 55 -220 17 -188 12 -533
-9 -587 -8 -21 -34 -198 -34 -232 0 -60 17 -16 23 59 3 43 10 79 15 81 6 2 8
11 5 21 -7 26 26 203 43 228 8 12 20 20 28 17 8 -3 17 -1 20 5 8 12 -14 61
-27 61 -6 0 -7 21 -3 53 11 83 23 111 56 125 17 8 34 22 40 31 8 16 30 154 35
226 1 17 3 32 5 35 1 3 4 28 5 55 1 28 5 57 8 65 3 8 8 47 11 87 5 62 3 74
-12 85 -23 17 -37 49 -18 42 8 -3 17 -1 21 5 3 6 -1 11 -10 11 -9 0 -13 5 -10
10 3 6 -4 14 -17 19 l-23 10 23 0 c24 1 31 21 7 21 -20 0 -19 17 3 29 15 9 14
13 -13 35 -16 14 -37 31 -45 38 -8 7 -18 14 -22 14 -5 1 -10 3 -13 4 -3 1 -9
3 -15 4 -5 0 -10 5 -9 10 0 5 -6 13 -15 18 -11 6 -16 24 -16 58 0 46 -13 87
-72 221 -11 26 -40 66 -64 90 -24 24 -43 49 -44 56 0 6 -19 27 -41 45 -23 18
-61 50 -84 71 -43 38 -68 50 -44 21 8 -9 -22 6 -65 35 -43 28 -83 51 -88 51
-6 0 -33 12 -61 26 -61 30 -157 54 -212 53 -38 -2 -39 -2 -10 -9 24 -6 22 -7
-10 -3 -112 13 -112 13 -85 3 24 -9 24 -9 -4 -5 -16 3 -38 8 -50 11 -14 3 -27
-1 -35 -10z m284 -16 c25 -11 -1 -11 -35 0 -20 6 -21 8 -5 8 11 0 29 -3 40 -8z
m485 -267 c0 -7 -39 17 -46 28 -3 6 5 3 20 -6 14 -10 26 -19 26 -22z m-1370
-64 c0 -5 -9 -9 -20 -9 -17 0 -19 2 -8 14 13 14 28 12 28 -5z m-104 -77 c-18
-16 -18 -16 -6 6 6 13 14 21 18 18 3 -4 -2 -14 -12 -24z m-216 -392 c-6 -11
-13 -20 -16 -20 -2 0 0 9 6 20 6 11 13 20 16 20 2 0 0 -9 -6 -20z m440 1 c0
-5 -9 -11 -21 -14 -16 -4 -18 -3 -8 9 13 16 29 19 29 5z m-442 -386 c-3 -3 -9
2 -12 12 -6 14 -5 15 5 6 7 -7 10 -15 7 -18z"/>
<path d="M2510 3965 c14 -8 30 -14 35 -14 6 0 -1 6 -15 14 -14 8 -29 14 -35
14 -5 0 1 -6 15 -14z"/>
<path d="M2580 3931 c14 -11 30 -21 35 -21 11 0 -7 14 -40 31 -13 7 -12 3 5
-10z"/>
<path d="M2630 3896 c0 -3 14 -14 30 -26 17 -12 30 -17 30 -11 0 6 -13 17 -30
26 -16 9 -30 13 -30 11z"/>
<path d="M1400 3640 c-8 -5 -12 -12 -9 -15 4 -3 12 1 19 10 14 17 11 19 -10 5z"/>
<path d="M2639 2824 c-9 -11 -22 -14 -46 -9 -41 8 -58 -1 -39 -21 8 -8 34 -14
58 -15 33 0 38 -2 23 -9 -17 -7 -14 -9 15 -10 22 -2 28 -4 15 -7 -11 -3 -24
-9 -29 -14 -13 -12 -66 -12 -66 0 0 5 6 11 13 14 6 2 -2 11 -19 20 -24 12 -50
15 -105 12 -147 -9 -165 -16 -185 -66 -9 -21 -20 -39 -25 -39 -5 0 -9 -8 -9
-19 0 -25 32 -32 65 -15 15 8 31 12 35 9 4 -3 26 1 48 9 22 8 52 16 68 17 16
2 34 7 40 11 6 4 33 11 60 14 27 4 59 13 72 20 17 11 27 12 43 4 11 -6 25 -10
32 -7 6 2 18 -2 25 -10 23 -23 89 -14 87 12 -3 41 -97 107 -139 97 -11 -2 -16
0 -12 7 11 17 -10 13 -25 -5z"/>
<path d="M1416 2700 c-41 -38 -66 -90 -66 -139 0 -17 6 -21 34 -21 39 0 61 19
24 21 -16 1 -13 3 12 9 19 5 36 13 38 19 5 15 55 14 70 -1 9 -9 15 -9 24 0 28
28 145 13 302 -38 32 -11 62 -17 67 -14 18 11 -5 70 -40 102 -65 60 -122 77
-258 77 -44 0 -79 3 -76 8 2 4 0 7 -6 7 -5 0 -13 -4 -16 -10 -10 -16 -35 -12
-29 5 12 30 -36 15 -80 -25z"/>
<path d="M2233 2716 c0 -18 3 -24 9 -18 7 7 7 16 0 28 -8 14 -9 13 -9 -10z"/>
<path d="M2196 2682 c-4 -12 -5 -26 -2 -31 4 -5 1 -11 -6 -13 -13 -5 -4 -38
11 -38 20 0 27 35 16 70 -11 31 -13 32 -19 12z"/>
<path d="M1485 2581 c3 -5 -5 -12 -17 -14 -21 -4 -20 -4 3 -6 16 0 29 5 33 14
3 9 0 15 -10 15 -8 0 -13 -4 -9 -9z"/>
<path d="M2354 2497 c-47 -23 -94 -61 -94 -78 0 -4 16 -9 35 -11 27 -3 34 -1
30 10 -2 7 4 23 15 34 13 15 20 17 20 8 0 -9 5 -7 15 6 14 19 14 19 15 -1 0
-37 41 -70 87 -70 23 -1 39 3 37 7 -3 4 -1 8 3 8 5 0 16 12 25 27 15 25 18 26
24 10 4 -11 0 -25 -10 -36 -24 -26 -7 -34 51 -25 32 5 56 16 75 35 16 15 28
30 28 33 0 12 -172 58 -235 63 -59 3 -78 0 -121 -20z m126 -7 c0 -5 -4 -10
-10 -10 -5 0 -10 5 -10 10 0 6 5 10 10 10 6 0 10 -4 10 -10z"/>
<path d="M1540 2473 c0 -5 -16 -19 -36 -32 -22 -15 -33 -30 -29 -39 4 -10 0
-13 -12 -10 -23 6 -57 -27 -40 -39 49 -34 80 -43 149 -43 84 0 121 8 111 23
-3 5 -1 7 5 4 18 -12 72 27 84 61 14 38 30 41 56 7 11 -14 27 -25 36 -25 26 0
3 34 -41 61 -30 19 -51 23 -122 23 -75 1 -93 -3 -139 -26 -66 -35 -69 -35 -37
-1 23 26 32 43 20 43 -3 0 -5 -3 -5 -7z m180 -39 c0 -8 -4 -12 -10 -9 -5 3
-10 10 -10 16 0 5 5 9 10 9 6 0 10 -7 10 -16z m-75 -68 l26 -39 -23 7 c-13 3
-28 6 -35 6 -7 0 -17 9 -23 19 -7 15 -6 24 6 36 9 9 18 14 20 13 1 -2 15 -21
29 -42z"/>
<path d="M2355 2400 c11 -5 27 -9 35 -9 9 0 8 4 -5 9 -11 5 -27 9 -35 9 -9 0
-8 -4 5 -9z"/>
<path d="M3202 2394 c-25 -17 -29 -34 -7 -34 8 0 15 5 15 12 0 6 12 1 26 -13
l26 -24 -7 25 c-12 42 -27 52 -53 34z"/>
<path d="M2460 2320 c-23 -7 -23 -8 -3 -9 12 -1 25 4 28 9 3 6 5 10 3 9 -2 -1
-14 -5 -28 -9z"/>
<path d="M1288 2265 c-4 -4 -4 -13 -1 -21 3 -8 0 -14 -6 -14 -15 0 -14 -53 3
-97 8 -21 17 -47 19 -58 7 -30 6 61 -2 133 -3 35 -9 61 -13 57z"/>
<path d="M3036 1974 c-9 -24 -8 -26 14 -14 11 6 18 15 15 21 -9 14 -22 11 -29
-7z"/>
<path d="M1310 1951 c0 -6 4 -13 10 -16 6 -3 7 1 4 9 -7 18 -14 21 -14 7z"/>
<path d="M1870 1898 c-25 -12 -52 -20 -62 -19 -23 3 -31 -15 -18 -39 12 -22
53 -26 107 -11 17 5 34 7 37 3 22 -21 142 -3 186 28 33 24 69 26 96 5 35 -27
114 -13 114 20 0 12 -5 12 -24 4 -18 -9 -29 -8 -47 4 -13 8 -47 17 -74 21 -43
5 -54 3 -74 -16 -20 -19 -33 -22 -75 -19 -29 2 -63 12 -78 22 -32 23 -32 23
-88 -3z"/>
<path d="M1340 1775 c0 -40 4 -57 15 -61 8 -4 15 -15 15 -25 0 -10 5 -19 11
-19 7 0 9 8 4 23 -4 12 -12 48 -17 80 -6 31 -15 57 -19 57 -5 0 -9 -25 -9 -55z"/>
<path d="M1744 1713 c-4 -10 -8 -20 -8 -23 -1 -3 -12 -20 -26 -38 -17 -23 -26
-29 -32 -20 -10 17 -30 -10 -23 -30 3 -8 5 -20 5 -27 0 -16 30 -27 85 -30 22
-1 48 -5 58 -10 9 -4 17 -3 17 2 0 25 212 60 420 68 178 7 260 15 260 26 0 15
-54 36 -85 33 -16 -1 -30 -3 -30 -4 0 -1 -15 -3 -32 -4 -18 -1 -33 1 -33 4 0
5 -67 6 -95 1 -5 -1 4 -8 20 -15 l30 -13 -53 -7 c-36 -5 -58 -3 -68 5 -10 8
-14 8 -14 0 0 -6 -18 -11 -42 -12 -236 -2 -256 -1 -260 16 -3 13 -8 13 -38 -3
-19 -11 -46 -23 -58 -27 -22 -6 -23 -5 -17 17 5 12 18 39 31 59 21 34 22 49 3
49 -4 0 -10 -8 -15 -17z"/>
<path d="M2962 1674 c-1 -15 -9 -41 -17 -57 -8 -17 -15 -41 -15 -54 0 -12 -4
-23 -10 -23 -5 0 -10 -9 -10 -20 0 -11 -4 -20 -10 -20 -5 0 -10 -10 -10 -23 0
-12 -11 -31 -25 -41 -14 -10 -25 -28 -25 -38 0 -11 -9 -22 -20 -25 -11 -3 -20
-9 -20 -14 0 -12 -112 -118 -133 -125 -10 -3 -30 -17 -45 -31 -30 -28 -179
-103 -205 -103 -9 0 -31 -9 -49 -20 -35 -21 -93 -26 -118 -10 -9 5 -19 5 -27
-2 -9 -7 -13 -7 -13 2 0 10 -4 10 -16 -1 -13 -10 -17 -10 -25 2 -7 11 -9 10
-9 -5 0 -15 -5 -17 -27 -13 -16 3 -44 8 -63 12 -19 4 -41 12 -47 17 -7 6 -13
7 -13 4 0 -4 -8 0 -17 10 -11 11 -18 13 -21 5 -5 -15 -29 -14 -35 2 -3 6 -6
-2 -6 -20 -1 -44 -24 -54 -83 -38 -27 6 -48 8 -48 4 0 -4 5 -9 11 -11 7 -2 10
-10 8 -17 -3 -8 -22 8 -49 41 -25 30 -56 63 -69 73 -24 18 -24 18 -19 -6 3
-13 9 -32 13 -42 5 -12 3 -17 -6 -15 -14 3 -18 -18 -39 -187 -23 -190 -50
-277 -130 -415 -26 -44 -82 -114 -114 -142 l-31 -27 25 -1 c28 0 147 44 258
96 41 19 80 34 88 34 9 0 12 5 8 12 -4 7 -3 8 5 4 16 -10 51 3 51 19 0 8 13
21 30 30 40 21 98 59 139 92 l34 27 -49 44 c-50 45 -36 43 25 -2 19 -14 37
-26 41 -26 6 0 24 41 35 78 8 29 35 39 83 33 34 -4 35 -5 12 -12 -24 -7 -23
-7 7 -8 17 -1 37 -3 45 -4 7 -2 10 -2 6 0 -16 9 -7 21 18 27 14 4 31 2 38 -3
9 -7 16 -7 24 1 6 6 31 15 54 19 l43 6 -35 3 -35 3 40 6 c30 4 39 10 37 22 -1
9 4 19 12 22 9 4 12 14 9 26 -3 13 0 23 10 27 9 3 13 12 11 19 -3 8 4 20 15
27 12 7 21 18 21 25 0 7 5 13 11 13 6 0 36 26 67 58 64 65 165 152 176 152 8
0 45 31 108 92 22 20 42 37 46 38 13 1 52 124 58 180 3 30 9 71 14 90 12 47
19 130 11 130 -4 0 -8 -12 -9 -26z m-934 -640 c0 -33 -23 -25 -23 8 -1 16 4
24 11 21 6 -2 12 -15 12 -29z m-318 -29 c0 -5 -5 -3 -10 5 -5 8 -10 20 -10 25
0 6 5 3 10 -5 5 -8 10 -19 10 -25z m680 -179 c0 -3 -4 -8 -10 -11 -5 -3 -10
-1 -10 4 0 6 5 11 10 11 6 0 10 -2 10 -4z m3 -33 c-7 -2 -19 -2 -25 0 -7 3 -2
5 12 5 14 0 19 -2 13 -5z"/>
<path d="M1898 1633 c7 -3 16 -2 19 1 4 3 -2 6 -13 5 -11 0 -14 -3 -6 -6z"/>
<path d="M1378 1623 c7 -3 16 -2 19 1 4 3 -2 6 -13 5 -11 0 -14 -3 -6 -6z"/>
<path d="M2055 1438 c-55 -5 -120 -6 -145 -4 -40 5 -43 4 -27 -8 10 -8 55 -19
100 -26 l82 -12 60 31 c33 17 53 30 45 29 -8 0 -60 -5 -115 -10z"/>
<path d="M2969 1313 c0 -10 -2 -29 -5 -43 -2 -14 -6 -36 -8 -50 -6 -36 -17
-62 -34 -82 -8 -10 -12 -18 -8 -18 4 0 -8 -21 -26 -46 -62 -87 -233 -219 -388
-300 -41 -21 -77 -42 -80 -45 -3 -3 -41 -25 -85 -48 -44 -23 -93 -53 -110 -66
l-29 -24 20 -23 c12 -13 26 -32 31 -42 6 -11 50 -59 98 -108 49 -48 83 -88 75
-88 -10 0 -10 -3 0 -15 7 -8 19 -15 26 -15 8 0 14 -4 14 -10 0 -5 3 -9 8 -8 4
1 28 -18 54 -42 59 -56 67 -63 98 -83 31 -20 42 -12 97 68 23 33 72 94 110
135 37 41 104 120 148 175 44 55 82 102 85 105 3 3 17 21 30 40 86 121 129
234 102 266 -5 5 -15 28 -22 52 -7 23 -19 47 -26 53 -7 6 -18 26 -24 45 -6 19
-17 34 -23 34 -17 1 -40 37 -61 100 -30 85 -65 129 -67 83z"/>
<path d="M1862 1090 c0 -14 2 -19 5 -12 2 6 2 18 0 25 -3 6 -5 1 -5 -13z"/>
<path d="M1891 1061 c1 -17 3 -20 6 -8 2 9 9 17 14 17 5 0 9 4 9 8 0 5 -7 9
-15 9 -10 0 -15 -9 -14 -26z"/>
<path d="M2328 743 c7 -3 16 -2 19 1 4 3 -2 6 -13 5 -11 0 -14 -3 -6 -6z"/>
<path d="M2378 743 c7 -3 16 -2 19 1 4 3 -2 6 -13 5 -11 0 -14 -3 -6 -6z"/>
</g>
</svg>
